<?xml version="1.0" standalone="no"?>
<!DOCTYPE svg PUBLIC "-//W3C//DTD SVG 20010904//EN"
 "http://www.w3.org/TR/2001/REC-SVG-20010904/DTD/svg10.dtd">
<svg version="1.0" xmlns="http://www.w3.org/2000/svg"
 width="700.000000pt" height="700.000000pt" viewBox="0 0 700.000000 700.000000"
 preserveAspectRatio="xMidYMid meet">
<metadata>
Created by potrace 1.11, written by Peter Selinger 2001-2013
</metadata>
<g transform="translate(0.000000,700.000000) scale(0.100000,-0.100000)"
fill="#000000" stroke="none">
<path d="M1978 4915 c-2 -2 -30 -5 -63 -9 -252 -26 -459 -103 -627 -234 -134
-104 -161 -222 -76 -331 67 -87 210 -91 299 -10 99 92 252 153 435 174 93 10
301 8 377 -4 345 -57 639 -256 812 -551 63 -108 64 -111 23 -99 -52 16 -299
76 -338 83 -19 3 -46 8 -60 11 -184 38 -532 56 -670 34 -74 -11 -245 -63 -266
-80 -6 -5 -33 -21 -60 -35 -138 -73 -284 -241 -347 -396 -48 -121 -72 -317
-53 -429 4 -19 8 -47 10 -64 10 -80 48 -199 91 -285 66 -133 193 -291 295
-368 215 -162 436 -234 694 -227 61 2 120 6 131 8 11 3 41 8 66 11 107 14 281
77 394 142 203 117 356 266 472 459 l37 62 66 -86 c180 -232 412 -406 677
-507 79 -30 225 -71 283 -78 25 -4 72 -10 105 -15 62 -9 407 -7 422 2 4 3 33
8 63 11 212 24 477 146 604 280 126 133 44 343 -134 343 -64 1 -85 -9 -175
-78 -108 -83 -251 -136 -410 -154 -193 -21 -407 -2 -570 50 -89 29 -271 123
-307 158 -7 7 -24 21 -38 30 -41 28 -149 138 -195 197 -41 54 -137 211 -132
217 2 1 27 -5 57 -13 30 -8 66 -17 78 -20 13 -2 49 -11 80 -19 32 -9 98 -22
147 -31 50 -8 101 -17 115 -19 14 -3 50 -7 80 -11 30 -3 84 -9 120 -14 127
-15 378 -10 472 11 362 77 618 342 673 694 7 44 8 232 1 243 -2 4 -6 30 -10
59 -15 127 -100 325 -192 448 -141 190 -335 325 -555 389 -108 31 -161 38
-289 41 -349 7 -691 -138 -936 -397 -72 -76 -183 -227 -200 -272 -5 -12 -22 5
-69 66 -73 97 -197 223 -275 282 -30 22 -57 44 -60 47 -10 12 -141 89 -217
128 -132 65 -288 115 -448 142 -57 9 -399 21 -407 14z m2842 -458 c192 -78
330 -229 391 -427 32 -104 32 -261 0 -338 -55 -136 -167 -226 -333 -269 -37
-9 -246 -11 -328 -2 -118 13 -176 19 -196 23 -11 2 -53 9 -94 16 -100 16 -317
72 -421 108 -143 50 -138 48 -134 79 2 15 6 57 10 93 23 235 170 475 378 612
45 30 107 65 137 77 30 12 64 26 75 31 38 16 130 33 215 39 103 7 217 -9 300
-42z m-2340 -881 c14 -3 52 -8 85 -11 90 -11 97 -12 156 -24 30 -6 66 -12 80
-15 58 -9 263 -68 351 -100 139 -50 148 -56 143 -80 -2 -12 -6 -46 -9 -76 -42
-432 -423 -772 -863 -771 -100 0 -214 26 -291 65 -156 79 -249 182 -331 366
-41 92 -48 288 -13 378 51 131 181 233 347 271 38 8 291 6 345 -3z"/>
</g>
</svg>
